# xmcd CD database file
#
# Track frame offsets:
#	225
#	29176
#	47936
#	72771
#	103466
#	127372
#	151961
#	179160
#
# Disc length: 2898 seconds
#
# Revision: 0
# Processed by: cddbd v1.5.2PL0 Copyright (c) Steve Scherf et al.
# Submitted via: CDex 1.51
#
DISCID=840b4f08
DTITLE=Cardinals Folly - Deranged Pagan Sons
DYEAR=2017
DGENRE=Doom Metal
TTITLE0=Worship Her Fire
TTITLE1=Dionysian
TTITLE2=Deranged Pagan Sons
TTITLE3=The Island Where Time Stands Still
TTITLE4=Three-Bladed Doom
TTITLE5=Suicide Commando
TTITLE6=I Belong In The Woods
TTITLE7=Secret of the Runes
EXTD=YEAR: 2017
EXTT0=
EXTT1=
EXTT2=
EXTT3=
EXTT4=
EXTT5=
EXTT6=
EXTT7=
PLAYORDER=
